<?xml version="1.0" encoding="UTF-8"?>
<!DOCTYPE svg PUBLIC "-//W3C//DTD SVG 1.0//EN" "http://www.w3.org/TR/2001/REC-SVG-20010904/DTD/svg10.dtd">
<!-- Creator: CorelDRAW X7 -->
<svg xmlns="http://www.w3.org/2000/svg" xml:space="preserve" width="3.47mm" height="0.2794mm" version="1.0" shape-rendering="geometricPrecision" text-rendering="geometricPrecision" image-rendering="optimizeQuality" fill-rule="evenodd" clip-rule="evenodd"
viewBox="0 0 347 28"
 xmlns:xlink="http://www.w3.org/1999/xlink">
 <g id="Layer_x0020_1">
  <metadata id="CorelCorpID_0Corel-Layer"/>
  <path fill="#666666" d="M85 27c-28,-19 -56,-28 -85,-27l0 27 85 0z"/>
  <path fill="gray" d="M347 3c-38,-9 -78,0 -118,24l118 0 0 -24z"/>
  <path fill="#E6E6E6" d="M174 27c-56,-37 -113,-37 -174,0l174 0z"/>
  <path fill="#CCCCCC" d="M255 27c-55,-37 -113,-37 -174,0l174 0z"/>
  <path fill="#999999" d="M318 27c-55,-37 -113,-37 -173,0l173 0z"/>
  <path fill="#B3B3B3" d="M141 27c-35,-24 -73,-23 -112,0l112 0z"/>
  <path fill="#B3B3B3" d="M347 27c-36,-24 -73,-23 -112,0l112 0z"/>
  <path fill="#B3B3B3" d="M243 27c-36,-24 -73,-23 -112,0l112 0z"/>
  <path fill="#B3B3B3" d="M86 27c-28,-19 -56,-24 -86,-17l0 17 86 0z"/>
 </g>
</svg>
